<svg xmlns="http://www.w3.org/2000/svg" viewBox="0 0 448 512">
  <!--! Font Awesome Pro 6.4.0 by @fontawesome - https://fontawesome.com License - https://fontawesome.com/license (Commercial License) Copyright 2023 Fonticons, Inc. -->
  <path d="M304 128H46.3c-23.7 0-46.3 28.2-46.3 63.4 0 32 17.3 64 43.1 64H304c23.7 0 46.3-28.2 46.3-63.4 0-32-17.3-64-43.1-64zm0 256H46.3c-23.7 0-46.3 28.2-46.3 63.4 0 32 17.3 64 43.1 64H304c23.7 0 46.3-28.2 46.3-63.4 0-32-17.3-64-43.1-64zM294.6 91.5C319.4 69.8 322.2 38 304 16c-11.4-14-36.2-13.8-59.5 7.3-15.6 14-33 33.2-30.8 57 2.4 25.1 20 45.4 46.1 48.7 18.2 2.2 42.6-8.6 44.8-37.5z"/>
</svg>