<svg xmlns="http://www.w3.org/2000/svg" viewBox="0 0 512 512">
  <path fill="#4285F4" d="M381.166 220.672c1.78 12.015 2.768 25.122 2.768 39.328 0 14.206-.988 27.313-2.768 39.328l-26.697 19.987-17.587-24.086 26.697-19.987c1.78-12.015 2.768-25.122 2.768-39.328s-.988-27.313-2.768-39.328L337.382 176.4l17.587-24.086 26.697 19.987z"/>
  <path fill="#34A853" d="M256 512c-52.023 0-101.442-18.068-139.117-48.404l16.14-22.107c30.297 22.95 68.618 36.438 111.455 36.438 67.24 0 124.095-46.046 142.348-109.117l21.644 16.208C405.07 483.931 336.953 512 256 512z"/>
  <path fill="#FBBC04" d="M116.883 463.596C79.208 433.26 50.407 390.17 32.327 340.596L6.505 321.43l17.587-24.086L50.407 316.596c18.08 49.574 46.88 92.664 84.555 122.999L116.883 463.596z"/>
  <path fill="#EA4335" d="M256 0c78.04 0 144.596 28.053 198.817 78.414l-21.644 16.208c-44.55-41.218-102.7-65.045-177.173-65.045-67.24 0-124.095 46.046-142.348 109.117l-21.644-16.208C106.93 28.069 175.047 0 256 0z"/>
  <path fill="#4285F4" d="M256 166.4c-49.88 0-91.135 40.536-91.135 90.395S206.12 347.19 256 347.19s91.135-40.536 91.135-90.395S305.88 166.4 256 166.4z"/>
</svg>